<?xml version="1.0" encoding="UTF-8" standalone="no"?>
<!-- Created with Inkscape (http://www.inkscape.org/) -->

<svg
   xmlns:dc="http://purl.org/dc/elements/1.1/"
   xmlns:cc="http://creativecommons.org/ns#"
   xmlns:rdf="http://www.w3.org/1999/02/22-rdf-syntax-ns#"
   xmlns:svg="http://www.w3.org/2000/svg"
   xmlns="http://www.w3.org/2000/svg"
   xmlns:sodipodi="http://sodipodi.sourceforge.net/DTD/sodipodi-0.dtd"
   xmlns:inkscape="http://www.inkscape.org/namespaces/inkscape"
   width="1200"
   height="1200"
   id="svg2"
   version="1.1"
   inkscape:version="0.48.5 r10040"
   sodipodi:docname="ud-interlingua.svg">
  <defs
     id="defs4" />
  <sodipodi:namedview
     id="base"
     pagecolor="#ffffff"
     bordercolor="#666666"
     borderopacity="1.0"
     inkscape:pageopacity="0.0"
     inkscape:pageshadow="2"
     inkscape:zoom="1"
     inkscape:cx="550.71429"
     inkscape:cy="602.48223"
     inkscape:document-units="px"
     inkscape:current-layer="capa1"
     showgrid="false"
     showguides="true"
     inkscape:guide-bbox="true"
     inkscape:window-width="2178"
     inkscape:window-height="1422"
     inkscape:window-x="0"
     inkscape:window-y="50"
     inkscape:window-maximized="0" />
  <metadata
     id="metadata7">
    <rdf:RDF>
      <cc:Work
         rdf:about="">
        <dc:format>image/svg+xml</dc:format>
        <dc:type
           rdf:resource="http://purl.org/dc/dcmitype/StillImage" />
        <dc:title></dc:title>
      </cc:Work>
    </rdf:RDF>
  </metadata>
  <g
     inkscape:label="Capa 1"
     inkscape:groupmode="layer"
     id="capa1"
     transform="translate(0,147.63776)">
    <path
       sodipodi:type="arc"
       style="fill:#f8f8f8;fill-opacity:1;stroke:#000000;stroke-width:6;stroke-miterlimit:4;stroke-opacity:1;stroke-dasharray:none;stroke-dashoffset:0"
       id="path2987"
       sodipodi:cx="305"
       sodipodi:cy="311.09003"
       sodipodi:rx="62"
       sodipodi:ry="62"
       d="m 367,311.09003 a 62,62 0 1 1 -124,0 62,62 0 1 1 124,0 z"
       transform="matrix(1.0769231,0,0,1.0769231,166.53846,-3.65782)" />
    <path
       sodipodi:type="arc"
       style="fill:#f8f8f8;fill-opacity:1;stroke:#000000;stroke-width:6;stroke-miterlimit:4;stroke-opacity:1;stroke-dasharray:none;stroke-dashoffset:0"
       id="path2987-7"
       sodipodi:cx="305"
       sodipodi:cy="311.09003"
       sodipodi:rx="62"
       sodipodi:ry="62"
       d="m 367,311.09003 a 62,62 0 1 1 -124,0 62,62 0 1 1 124,0 z"
       transform="matrix(1.0769231,0,0,1.0769231,-43.461539,-119.19625)" />
    <path
       sodipodi:type="arc"
       style="fill:#f8f8f8;fill-opacity:1;stroke:#000000;stroke-width:6.00042868;stroke-miterlimit:4;stroke-opacity:1;stroke-dasharray:none;stroke-dashoffset:0"
       id="path2987-77"
       sodipodi:cx="305"
       sodipodi:cy="311.09003"
       sodipodi:rx="62"
       sodipodi:ry="62"
       d="m 367,311.09003 a 62,62 0 1 1 -124,0 62,62 0 1 1 124,0 z"
       transform="matrix(1.0769231,0,0,1.0769231,228.53846,-240.11933)" />
    <path
       sodipodi:type="arc"
       style="fill:#f8f8f8;fill-opacity:1;stroke:#000000;stroke-width:6;stroke-miterlimit:4;stroke-opacity:1;stroke-dasharray:none;stroke-dashoffset:0"
       id="path2987-5"
       sodipodi:cx="305"
       sodipodi:cy="311.09003"
       sodipodi:rx="62"
       sodipodi:ry="62"
       d="m 367,311.09003 a 62,62 0 1 1 -124,0 62,62 0 1 1 124,0 z"
       transform="matrix(1.0769231,0,0,1.0769231,437.53846,-127.88856)" />
    <path
       sodipodi:type="arc"
       style="fill:#f8f8f8;fill-opacity:1;stroke:#000000;stroke-width:6;stroke-miterlimit:4;stroke-opacity:1;stroke-dasharray:none;stroke-dashoffset:0"
       id="path2987-8"
       sodipodi:cx="305"
       sodipodi:cy="311.09003"
       sodipodi:rx="62"
       sodipodi:ry="62"
       d="m 367,311.09003 a 62,62 0 1 1 -124,0 62,62 0 1 1 124,0 z"
       transform="matrix(1.0769231,0,0,1.0769231,248.53847,454.57297)" />
    <path
       sodipodi:type="arc"
       style="fill:#f8f8f8;fill-opacity:1;stroke:#000000;stroke-width:6;stroke-miterlimit:4;stroke-opacity:1;stroke-dasharray:none;stroke-dashoffset:0"
       id="path2987-2"
       sodipodi:cx="305"
       sodipodi:cy="311.09003"
       sodipodi:rx="62"
       sodipodi:ry="62"
       d="m 367,311.09003 a 62,62 0 1 1 -124,0 62,62 0 1 1 124,0 z"
       transform="matrix(1.0769231,0,0,1.0769231,90.53846,238.11144)" />
    <path
       sodipodi:type="arc"
       style="fill:#f8f8f8;fill-opacity:1;stroke:#000000;stroke-width:6;stroke-miterlimit:4;stroke-opacity:1;stroke-dasharray:none;stroke-dashoffset:0"
       id="path2987-3"
       sodipodi:cx="305"
       sodipodi:cy="311.09003"
       sodipodi:rx="62"
       sodipodi:ry="62"
       d="m 367,311.09003 a 62,62 0 1 1 -124,0 62,62 0 1 1 124,0 z"
       transform="matrix(1.0769231,0,0,1.0769231,578.30769,84.3422)" />
    <path
       sodipodi:type="arc"
       style="fill:#f8f8f8;fill-opacity:1;stroke:#000000;stroke-width:6;stroke-miterlimit:4;stroke-opacity:1;stroke-dasharray:none;stroke-dashoffset:0"
       id="path2987-29"
       sodipodi:cx="305"
       sodipodi:cy="311.09003"
       sodipodi:rx="62"
       sodipodi:ry="62"
       d="m 367,311.09003 a 62,62 0 1 1 -124,0 62,62 0 1 1 124,0 z"
       transform="matrix(1.0769231,0,0,1.0769231,-149.92308,137.34222)" />
    <path
       sodipodi:type="arc"
       style="fill:#f8f8f8;fill-opacity:1;stroke:#000000;stroke-width:6;stroke-miterlimit:4;stroke-opacity:1;stroke-dasharray:none;stroke-dashoffset:0"
       id="path2987-30"
       sodipodi:cx="305"
       sodipodi:cy="311.09003"
       sodipodi:rx="62"
       sodipodi:ry="62"
       d="m 367,311.09003 a 62,62 0 1 1 -124,0 62,62 0 1 1 124,0 z"
       transform="matrix(1.0769231,0,0,1.0769231,351.99999,148.34222)" />
    <text
       xml:space="preserve"
       style="font-size:30px;font-style:normal;font-weight:normal;line-height:125%;letter-spacing:0px;word-spacing:0px;fill:#000000;fill-opacity:1;stroke:none;font-family:Sans"
       x="117"
       y="484.36224"
       id="text3108"
       sodipodi:linespacing="125%"><tspan
         sodipodi:role="line"
         id="tspan3110"
         x="117"
         y="484.36224">Swedish</tspan></text>
    <text
       xml:space="preserve"
       style="font-size:30px;font-style:normal;font-weight:normal;line-height:125%;letter-spacing:0px;word-spacing:0px;fill:#000000;fill-opacity:1;stroke:none;font-family:Sans"
       x="232"
       y="227.54633"
       id="text3108-5"
       sodipodi:linespacing="125%"><tspan
         sodipodi:role="line"
         id="tspan3110-1"
         x="232"
         y="227.54633">Danish</tspan></text>
    <text
       xml:space="preserve"
       style="font-size:30px;font-style:normal;font-weight:normal;line-height:125%;letter-spacing:0px;word-spacing:0px;fill:#000000;fill-opacity:1;stroke:none;font-family:Sans"
       x="518"
       y="800.23865"
       id="text3108-5-9"
       sodipodi:linespacing="125%"><tspan
         sodipodi:role="line"
         id="tspan3110-1-1"
         x="518"
         y="800.23865">Spanish</tspan></text>
    <text
       xml:space="preserve"
       style="font-size:30px;font-style:normal;font-weight:normal;line-height:125%;letter-spacing:0px;word-spacing:0px;fill:#000000;fill-opacity:1;stroke:none;font-family:Sans"
       x="509.03271"
       y="106.63861"
       id="text3108-5-9-0"
       sodipodi:linespacing="125%"><tspan
         sodipodi:role="line"
         id="tspan3110-1-1-0"
         x="509.03271"
         y="106.63861">Czech</tspan></text>
    <text
       xml:space="preserve"
       style="font-size:30px;font-style:normal;font-weight:normal;line-height:125%;letter-spacing:0px;word-spacing:0px;fill:#000000;fill-opacity:1;stroke:none;font-family:Sans"
       x="630"
       y="494.36224"
       id="text3108-5-9-0-4-7"
       sodipodi:linespacing="125%"><tspan
         sodipodi:role="line"
         id="tspan3110-1-1-0-2-6"
         x="630"
         y="494.36224">Turkish</tspan></text>
    <text
       xml:space="preserve"
       style="font-size:30px;font-style:normal;font-weight:normal;line-height:125%;letter-spacing:0px;word-spacing:0px;fill:#000000;fill-opacity:1;stroke:none;font-family:Sans"
       x="369.55127"
       y="584.854"
       id="text3108-5-9-0-4-76"
       sodipodi:linespacing="125%"><tspan
         sodipodi:role="line"
         id="tspan3110-1-1-0-2-49"
         x="369.55127"
         y="584.854">French</tspan></text>
    <text
       xml:space="preserve"
       style="font-size:30px;font-style:normal;font-weight:normal;line-height:125%;letter-spacing:0px;word-spacing:0px;fill:#000000;fill-opacity:1;stroke:none;font-family:Sans"
       x="849.80194"
       y="430.10016"
       id="text3108-5-9-6"
       sodipodi:linespacing="125%"><tspan
         sodipodi:role="line"
         id="tspan3110-1-1-8"
         x="849.80194"
         y="430.10016">Basque</tspan></text>
    <text
       xml:space="preserve"
       style="font-size:60px;font-style:normal;font-weight:bold;line-height:125%;letter-spacing:0px;word-spacing:0px;fill:#000000;fill-opacity:1;stroke:none;font-family:Sans;-inkscape-font-specification:Sans Bold"
       x="443"
       y="342.36224"
       id="text4100"
       sodipodi:linespacing="125%"><tspan
         sodipodi:role="line"
         id="tspan4102"
         x="443"
         y="342.36224"
         style="font-size:30px;font-weight:normal;-inkscape-font-specification:Sans">English</tspan></text>
    <path
       sodipodi:type="arc"
       style="fill:#f8f8f8;fill-opacity:1;stroke:#000000;stroke-width:6;stroke-miterlimit:4;stroke-opacity:1;stroke-dasharray:none;stroke-dashoffset:0"
       id="path2987-3-7"
       sodipodi:cx="305"
       sodipodi:cy="311.09003"
       sodipodi:rx="62"
       sodipodi:ry="62"
       d="m 367,311.09003 a 62,62 0 1 1 -124,0 62,62 0 1 1 124,0 z"
       transform="matrix(1.0769231,0,0,1.0769231,500.53845,439.3422)" />
    <text
       xml:space="preserve"
       style="font-size:30px;font-style:normal;font-weight:normal;line-height:125%;letter-spacing:0px;word-spacing:0px;fill:#000000;fill-opacity:1;stroke:none;font-family:Sans"
       x="774.03271"
       y="785.10016"
       id="text3108-5-9-6-6"
       sodipodi:linespacing="125%"><tspan
         sodipodi:role="line"
         id="tspan3110-1-1-8-0"
         x="774.03271"
         y="785.10016">Kazakh</tspan></text>
    <path
       sodipodi:type="arc"
       style="fill:#f8f8f8;fill-opacity:1;stroke:#000000;stroke-width:6;stroke-miterlimit:4;stroke-opacity:1;stroke-dasharray:none;stroke-dashoffset:0"
       id="path2987-3-7-2"
       sodipodi:cx="305"
       sodipodi:cy="311.09003"
       sodipodi:rx="62"
       sodipodi:ry="62"
       d="m 367,311.09003 a 62,62 0 1 1 -124,0 62,62 0 1 1 124,0 z"
       transform="matrix(1.0769231,0,0,1.0769231,645.53845,-269.6578)" />
    <text
       xml:space="preserve"
       style="font-size:30px;font-style:normal;font-weight:normal;line-height:125%;letter-spacing:0px;word-spacing:0px;fill:#000000;fill-opacity:1;stroke:none;font-family:Sans"
       x="915.55127"
       y="77.854004"
       id="text3108-5-9-0-4"
       sodipodi:linespacing="125%"><tspan
         sodipodi:role="line"
         id="tspan3110-1-1-0-2"
         x="915.55127"
         y="77.854004">Russian</tspan></text>
    <text
       xml:space="preserve"
       style="font-size:30px;font-style:normal;font-weight:normal;line-height:125%;letter-spacing:0px;word-spacing:0px;fill:#000000;fill-opacity:1;stroke:none;font-family:Sans"
       x="703.03271"
       y="217.10016"
       id="text3108-5-9-6-6-8"
       sodipodi:linespacing="125%"><tspan
         sodipodi:role="line"
         id="tspan3110-1-1-8-0-8"
         x="703.03271"
         y="217.10016">Croatian</tspan></text>
    <path
       style="fill:none;stroke:#000000;stroke-width:3;stroke-linecap:butt;stroke-linejoin:miter;stroke-miterlimit:4;stroke-opacity:1;stroke-dasharray:12, 12;stroke-dashoffset:0"
       d="M 722,-12.63776 C 680.62812,-66.500383 562.62371,-59.833916 507.23949,-28.222053 458.05958,-3.259815 420.36379,55.10242 437.73492,110.83062 c 24.33936,67.82572 80.96848,123.29783 139.10979,159.0854 32.45708,20.30012 72.81991,41.30393 105.75167,60.89864 35.94685,20.79125 88.22874,26.50511 127.34751,7.42341 119.83533,-15.40779 143.30434,-120.90686 232.49531,-143.16279 61.0588,-23.11832 84.768,-99.54577 65.107,-158.266138 -18.5738,-56.804828 -68.5342,-102.302102 -128.02063,-112.02094 -47.14981,-9.690381 -96.25532,3.863784 -135.43973,30.781306 C 797.05946,-15.382608 778.7455,8.438362 722,-12.63776 z"
       id="path4216"
       inkscape:connector-curvature="0"
       sodipodi:nodetypes="ccccccccccc" />
    <path
       style="fill:none;stroke:#000000;stroke-width:1px;stroke-linecap:butt;stroke-linejoin:miter;stroke-opacity:1"
       d="m 625,87.36224 280,-20"
       id="path4262"
       inkscape:connector-curvature="0" />
    <path
       style="fill:none;stroke:#000000;stroke-width:1px;stroke-linecap:butt;stroke-linejoin:miter;stroke-opacity:1"
       d="m 932,119.36224 -105,51"
       id="path4264"
       inkscape:connector-curvature="0" />
    <path
       style="fill:none;stroke:#000000;stroke-width:1px;stroke-linecap:butt;stroke-linejoin:miter;stroke-opacity:1"
       d="m 605,145.36224 96,41"
       id="path4266"
       inkscape:connector-curvature="0" />
    <path
       style="fill:none;stroke:#000000;stroke-width:1px;stroke-linecap:butt;stroke-linejoin:miter;stroke-opacity:1"
       d="m 537,158.36224 -26,108"
       id="path4268"
       inkscape:connector-curvature="0" />
    <path
       style="fill:none;stroke:#000000;stroke-width:1px;stroke-linecap:butt;stroke-linejoin:miter;stroke-opacity:1"
       d="m 844,707.36224 54,-220"
       id="path4272"
       inkscape:connector-curvature="0" />
    <path
       style="fill:none;stroke:#000000;stroke-width:1px;stroke-linecap:butt;stroke-linejoin:miter;stroke-opacity:1"
       d="m 861,466.36224 -240,267"
       id="path4274"
       inkscape:connector-curvature="0" />
    <path
       style="fill:none;stroke:#000000;stroke-width:1px;stroke-linecap:butt;stroke-linejoin:miter;stroke-opacity:1"
       d="m 447,634.36224 80,105"
       id="path4276"
       inkscape:connector-curvature="0" />
    <path
       style="fill:none;stroke:#000000;stroke-width:1px;stroke-linecap:butt;stroke-linejoin:miter;stroke-opacity:1"
       d="m 580,722.36224 -71,-328"
       id="path4278"
       inkscape:connector-curvature="0" />
    <path
       style="fill:none;stroke:#000000;stroke-width:1px;stroke-linecap:butt;stroke-linejoin:miter;stroke-opacity:1"
       d="m 202,411.36224 58,-131"
       id="path4280"
       inkscape:connector-curvature="0" />
    <path
       style="fill:none;stroke:#000000;stroke-width:1px;stroke-linecap:butt;stroke-linejoin:miter;stroke-opacity:1"
       d="m 436,291.36224 -94,-42"
       id="path4282"
       inkscape:connector-curvature="0" />
    <path
       style="fill:none;stroke:#000000;stroke-width:1px;stroke-linecap:butt;stroke-linejoin:miter;stroke-opacity:1"
       d="m 247,466.36224 192,-96"
       id="path4284"
       inkscape:connector-curvature="0" />
    <path
       style="fill:none;stroke:#000000;stroke-width:3;stroke-linecap:butt;stroke-linejoin:miter;stroke-miterlimit:4;stroke-opacity:1;stroke-dasharray:9, 9;stroke-dashoffset:0"
       d="M 107,272.36224 C 97.758029,346.63798 25.523502,404.88994 50.194602,485.87986 60.426345,576.56135 158.33375,622.23744 240.35027,604.25261 332.70706,587.1268 283.98566,483.22789 312.01831,422.47038 329.43212,339.07446 408.93087,290.82814 435.81347,213.50373 450.47378,106.16573 326.35146,-2.748135 242.18534,10.660019 169.91939,13.362365 106.89834,152.99883 110.62965,226.7936 107.9794,241.79486 105.19795,257.07778 107,272.36224 z"
       id="path4297"
       inkscape:connector-curvature="0"
       sodipodi:nodetypes="cccccccc" />
    <path
       style="fill:none;stroke:#000000;stroke-width:1px;stroke-linecap:butt;stroke-linejoin:miter;stroke-opacity:1"
       d="m 712,690 79,174"
       id="path4305"
       inkscape:connector-curvature="0"
       transform="translate(0,-147.63776)" />
    <path
       style="fill:none;stroke:#000000;stroke-width:1px;stroke-linecap:butt;stroke-linejoin:miter;stroke-opacity:1"
       d="M 434,654 475,542"
       id="path4307"
       inkscape:connector-curvature="0"
       transform="translate(0,-147.63776)" />
    <path
       style="fill:none;stroke:#000000;stroke-width:1px;stroke-linecap:butt;stroke-linejoin:miter;stroke-opacity:1"
       d="M 708,392 555,456"
       id="path4311"
       inkscape:connector-curvature="0"
       transform="translate(0,-147.63776)" />
    <path
       sodipodi:type="arc"
       style="fill:#f8f8f8;fill-opacity:1;stroke:#000000;stroke-width:6;stroke-miterlimit:4;stroke-opacity:1;stroke-dasharray:none;stroke-dashoffset:0"
       id="path2987-30-2"
       sodipodi:cx="305"
       sodipodi:cy="311.09003"
       sodipodi:rx="62"
       sodipodi:ry="62"
       d="m 367,311.09003 a 62,62 0 1 1 -124,0 62,62 0 1 1 124,0 z"
       transform="matrix(1.0769231,0,0,1.0769231,738.53845,303.3422)" />
    <text
       xml:space="preserve"
       style="font-size:30px;font-style:normal;font-weight:normal;line-height:125%;letter-spacing:0px;word-spacing:0px;fill:#000000;fill-opacity:1;stroke:none;font-family:Sans"
       x="1016.5385"
       y="649.36224"
       id="text3108-5-9-0-4-7-5"
       sodipodi:linespacing="125%"><tspan
         sodipodi:role="line"
         id="tspan3110-1-1-0-2-6-0"
         x="1016.5385"
         y="649.36224">Finnish</tspan></text>
    <path
       style="fill:none;stroke:#000000;stroke-width:1px;stroke-linecap:butt;stroke-linejoin:miter;stroke-opacity:1"
       d="m 551,512 81,70"
       id="path4337"
       inkscape:connector-curvature="0"
       transform="translate(0,-147.63776)" />
    <path
       style="fill:none;stroke:#000000;stroke-width:1px;stroke-linecap:butt;stroke-linejoin:miter;stroke-opacity:1"
       d="m 887,891 121,-72"
       id="path4339"
       inkscape:connector-curvature="0"
       transform="translate(0,-147.63776)" />
    <path
       style="fill:none;stroke:#000000;stroke-width:3;stroke-linecap:butt;stroke-linejoin:miter;stroke-opacity:1;stroke-miterlimit:4;stroke-dasharray:9,9;stroke-dashoffset:0"
       d="m 579,449.36224 c -8.45137,53.08906 19.99677,108.2648 65.12048,136.20906 41.42361,4.64137 70.11989,45.76892 69.3239,85.87156 0.80545,33.3789 -5.20988,66.60507 -3.28538,99.97721 -2.81767,41.05357 -7.46996,89.4058 23.97403,121.45401 42.40342,30.98415 97.16863,45.70055 149.26043,37.26525 53.67651,-38.33271 79.36633,-103.78955 91.3364,-166.42274 3.95912,-53.83238 -38.87633,-96.97006 -82.60914,-121.28738 -21.98269,-16.49865 -56.61183,-17.77151 -67.0941,-46.67329 -15.70377,-36.51032 -3.00047,-78.36976 -19.25343,-114.80038 -9.80753,-39.99656 -27.17235,-80.85632 -62.86693,-104.38607 -26.08299,-17.1079 -56.30379,-30.92788 -87.77931,-32.40843 -47.16094,1.12486 -93.58386,46.34032 -83.53733,95.14874 1.63993,3.93403 5.03379,6.62639 7.41038,10.05246 z"
       id="path4343"
       inkscape:connector-curvature="0" />
    <text
       xml:space="preserve"
       style="font-size:45px;font-style:normal;font-weight:normal;line-height:125%;letter-spacing:0px;word-spacing:0px;fill:#000000;fill-opacity:1;stroke:none;font-family:Sans"
       x="713"
       y="40.36224"
       id="text4351"
       sodipodi:linespacing="125%"><tspan
         sodipodi:role="line"
         id="tspan4353"
         x="713"
         y="40.36224"
         style="font-size:30px;font-weight:bold;-inkscape-font-specification:Sans Bold">Slavic</tspan></text>
    <text
       xml:space="preserve"
       style="font-size:45px;font-style:normal;font-weight:normal;line-height:125%;letter-spacing:0px;word-spacing:0px;fill:#000000;fill-opacity:1;stroke:none;font-family:Sans"
       x="159.99023"
       y="117.54633"
       id="text4351-1"
       sodipodi:linespacing="125%"><tspan
         sodipodi:role="line"
         id="tspan4353-6"
         x="159.99023"
         y="117.54633"
         style="font-size:30px;font-weight:bold;-inkscape-font-specification:Sans Bold">Scandinavian</tspan></text>
    <text
       xml:space="preserve"
       style="font-size:45px;font-style:normal;font-weight:normal;line-height:125%;letter-spacing:0px;word-spacing:0px;fill:#000000;fill-opacity:1;stroke:none;font-family:Sans"
       x="785"
       y="893.36224"
       id="text4376"
       sodipodi:linespacing="125%"><tspan
         sodipodi:role="line"
         id="tspan4378"
         x="785"
         y="893.36224"
         style="font-size:30px;font-weight:bold;-inkscape-font-specification:Sans Bold">Turkic</tspan></text>
  </g>
</svg>
